<?xml version="1.0" encoding="UTF-8"?>
<svg xmlns="http://www.w3.org/2000/svg" xmlns:xlink="http://www.w3.org/1999/xlink" id="a" width="274.12" height="40" viewBox="0 0 274.12 40">
  <defs>
    <linearGradient id="b" x1="110.03" y1="16.84" x2="125.5" y2="19.85" gradientUnits="userSpaceOnUse">
      <stop offset="0" stop-color="#1d4586"></stop>
      <stop offset="1" stop-color="#78cedc"></stop>
    </linearGradient>
    <linearGradient id="c" x1="117.14" y1="23.29" x2="117.14" y2="31.03" gradientTransform="translate(0 39.96) scale(1 -1)" gradientUnits="userSpaceOnUse">
      <stop offset="0" stop-color="#12b26a" stop-opacity="0"></stop>
      <stop offset="1" stop-color="#12b26a"></stop>
    </linearGradient>
    <linearGradient id="d" x1="27.86" y1="3.98" x2="35.32" y2="5.43" xlink:href="#b"></linearGradient>
    <linearGradient id="e" x1="31.29" y1="36.06" x2="31.29" y2="39.8" xlink:href="#c"></linearGradient>
  </defs>
  <path d="m146.49,17.76v-.04c0-1.1-.2-2.11-.6-3.04-.4-.95-.97-1.77-1.71-2.46-.73-.7-1.6-1.24-2.62-1.62-1.01-.4-2.12-.6-3.33-.6h-6.06v15.54h6.06c1.21,0,2.32-.2,3.33-.6,1.02-.4,1.89-.95,2.62-1.64.74-.7,1.31-1.52,1.71-2.46.4-.95.6-1.97.6-3.06Zm-3.57.04c0,.7-.12,1.32-.36,1.89-.22.56-.54,1.05-.95,1.47-.4.41-.89.73-1.47.95-.58.22-1.21.33-1.91.33h-2.64v-9.37h2.64c.7,0,1.33.12,1.91.36.58.22,1.07.54,1.47.95.41.41.73.91.95,1.49.24.58.36,1.21.36,1.89v.04Zm9.22-5.48v-3h-3.55v3h3.55Zm-.09,13.21v-11.9h-3.37v11.9h3.37Zm13.87-11.9h-3.51l-2.69,7.97-2.66-7.97h-3.57l4.69,11.99h3.06l4.68-11.99Zm12.38,6.28v-.04c0-.84-.12-1.65-.36-2.42-.22-.78-.58-1.47-1.07-2.06-.47-.61-1.07-1.09-1.8-1.44-.73-.36-1.58-.53-2.58-.53-.87,0-1.67.16-2.4.49-.71.33-1.32.77-1.84,1.33-.52.56-.93,1.22-1.22,1.98-.28.75-.42,1.55-.42,2.4v.04c0,.92.16,1.75.47,2.51.31.74.74,1.38,1.29,1.93.56.55,1.22.97,1.98,1.27.77.3,1.6.44,2.49.44,1.08,0,2.02-.19,2.82-.58.8-.4,1.48-.95,2.04-1.64l-1.93-1.71c-.47.43-.93.74-1.38.93-.44.19-.95.29-1.51.29-.76,0-1.39-.19-1.91-.58-.5-.4-.84-.98-1-1.75h8.28c.02-.16.02-.3.02-.42.01-.12.02-.26.02-.42Zm-3.29-1.27h-5.08c.13-.77.41-1.38.84-1.84.44-.46,1.02-.69,1.73-.69s1.28.24,1.71.71c.43.46.7,1.07.8,1.82Zm12.31-1.71v-3.53c-1.01-.04-1.81.18-2.4.67-.59.49-1.06,1.14-1.4,1.95v-2.4h-3.37v11.9h3.37v-4.4c0-1.44.32-2.49.95-3.18.65-.68,1.54-1.02,2.66-1.02h.18Zm10.17,4.97v-.04c0-.55-.11-1.01-.33-1.4-.22-.38-.5-.71-.84-.98-.34-.27-.73-.49-1.15-.67-.43-.19-.85-.36-1.27-.49-.33-.1-.64-.21-.93-.31-.28-.1-.53-.21-.75-.31-.22-.12-.4-.24-.53-.36-.13-.13-.2-.28-.2-.44v-.04c0-.24.1-.43.31-.58.21-.16.52-.24.93-.24s.92.1,1.49.31c.56.19,1.14.46,1.73.8l1.29-2.33c-.65-.43-1.37-.76-2.15-1-.77-.25-1.53-.38-2.29-.38-.61,0-1.18.08-1.71.24-.52.16-.98.41-1.38.73-.38.33-.7.73-.93,1.2-.22.46-.33.99-.33,1.6v.04c0,.58.1,1.07.31,1.47.22.4.5.74.84,1.02.34.27.72.49,1.13.67.43.16.85.3,1.27.42.33.1.64.2.93.29.3.09.56.19.78.29.24.09.42.2.56.33.13.13.2.29.2.47v.04c0,.27-.12.48-.36.64-.22.16-.58.24-1.07.24-.56,0-1.17-.12-1.82-.36-.64-.24-1.28-.59-1.93-1.07l-1.44,2.22c.8.62,1.64,1.08,2.51,1.38.89.28,1.75.42,2.6.42.64,0,1.23-.07,1.78-.22.56-.16,1.05-.4,1.47-.71.41-.31.73-.7.95-1.18.24-.49.36-1.07.36-1.73Zm5.37-9.59v-3h-3.55v3h3.55Zm-.09,13.21v-11.9h-3.37v11.9h3.37Zm9.19-.49v-2.71c-.52.28-1.07.42-1.67.42-.73,0-1.09-.38-1.09-1.15v-5.08h2.8v-2.89h-2.8v-3.04h-3.37v3.04h-1.42v2.89h1.42v5.64c0,.7.08,1.27.24,1.73.18.44.41.81.71,1.09.31.28.67.47,1.09.58.43.12.9.18,1.42.18.56,0,1.06-.07,1.49-.2.43-.12.82-.28,1.18-.49Zm13.19-11.41h-3.51l-2.6,8.1-2.71-8.1h-3.57l4.66,11.94c-.15.3-.31.5-.49.6-.16.12-.39.18-.69.18-.22,0-.47-.04-.73-.13-.25-.09-.49-.2-.71-.33l-1.13,2.44c.43.25.88.45,1.35.6.47.15,1.02.22,1.64.22.5,0,.95-.06,1.33-.18.38-.12.73-.31,1.02-.58.31-.27.59-.61.84-1.04.25-.41.49-.92.71-1.53l4.57-12.19Zm10.14,6.75v-10.39h-1.78v10.41c0,1.23-.29,2.16-.87,2.8-.58.62-1.3.93-2.18.93-.81,0-1.49-.18-2.04-.56-.53-.38-1.04-.94-1.51-1.67l-1.27,1.09c.49.8,1.12,1.46,1.89,1.98.77.52,1.74.78,2.91.78.7,0,1.34-.11,1.93-.33.59-.22,1.1-.56,1.53-1,.43-.46.76-1.02,1-1.69.25-.68.38-1.47.38-2.35Zm14.45-.6c0-.81-.15-1.58-.44-2.31-.3-.73-.71-1.35-1.24-1.89-.53-.55-1.17-.98-1.91-1.29-.73-.33-1.52-.49-2.38-.49s-1.68.16-2.42.49c-.73.31-1.35.74-1.89,1.29-.53.55-.95,1.19-1.24,1.93-.3.73-.44,1.49-.44,2.31s.15,1.58.44,2.31c.3.73.71,1.36,1.24,1.91.53.53,1.16.96,1.89,1.29.73.31,1.52.47,2.38.47s1.66-.16,2.4-.47c.74-.33,1.38-.76,1.91-1.31.53-.55.95-1.18,1.24-1.91.31-.74.47-1.52.47-2.33Zm-1.75.04c0,.62-.1,1.21-.31,1.75-.21.53-.5,1-.87,1.4-.37.4-.81.72-1.33.95-.52.22-1.09.33-1.71.33s-1.17-.12-1.69-.36c-.52-.24-.97-.56-1.35-.96-.37-.4-.67-.87-.89-1.42-.21-.55-.31-1.13-.31-1.75s.1-1.2.31-1.73c.21-.55.49-1.02.84-1.42.37-.41.81-.73,1.33-.95.52-.24,1.09-.36,1.71-.36s1.17.12,1.69.36.97.56,1.35.98c.38.4.68.87.89,1.42.22.55.33,1.13.33,1.75Zm15.77-.04c0-.95-.16-1.79-.47-2.53-.31-.74-.73-1.36-1.24-1.86-.52-.52-1.11-.91-1.78-1.18-.65-.27-1.32-.4-2-.4-.53,0-1.02.07-1.47.22-.43.13-.82.32-1.18.56-.36.22-.68.49-.98.8-.28.31-.54.64-.78.98v-7.04h-1.71v16.21h1.71v-2.2c.22.33.47.64.75.93.3.3.62.56.98.78.36.22.75.4,1.2.53.44.13.93.2,1.47.2.7,0,1.37-.13,2.02-.4.67-.28,1.25-.67,1.75-1.18.52-.52.93-1.15,1.24-1.89.31-.74.47-1.58.47-2.53Zm-1.75.02c0,.7-.11,1.32-.33,1.89-.21.55-.5,1.01-.87,1.4-.36.37-.78.66-1.29.87-.49.19-1.01.29-1.55.29s-1.05-.1-1.55-.31c-.49-.22-.93-.53-1.33-.91-.38-.38-.7-.85-.93-1.4-.22-.56-.33-1.18-.33-1.84s.11-1.27.33-1.82c.24-.55.55-1.01.93-1.4.4-.38.84-.68,1.33-.89.5-.22,1.02-.33,1.55-.33s1.07.1,1.55.31c.49.21.92.51,1.29.91.37.38.66.85.87,1.4.22.55.33,1.16.33,1.84Zm12.12,2.51v-.04c0-.52-.11-.95-.33-1.31-.21-.36-.49-.66-.84-.91-.36-.25-.75-.46-1.2-.62-.43-.16-.87-.31-1.31-.44-.38-.12-.75-.24-1.11-.36-.36-.12-.67-.25-.95-.4-.27-.15-.48-.32-.64-.51-.16-.21-.24-.44-.24-.71v-.04c0-.47.2-.87.6-1.18.4-.33.94-.49,1.62-.49.56,0,1.13.1,1.71.31.59.19,1.15.46,1.69.8l.78-1.29c-.59-.38-1.25-.69-1.98-.91-.73-.24-1.44-.36-2.15-.36-.56,0-1.09.08-1.58.24-.47.15-.89.37-1.24.67-.34.28-.61.63-.8,1.04-.19.4-.29.84-.29,1.33v.04c0,.53.11.98.33,1.33.24.36.53.65.89.89.37.24.78.44,1.22.6.46.15.91.29,1.35.42.37.1.73.21,1.07.33.36.12.67.26.93.42.27.15.47.33.62.53.16.21.24.45.24.73v.04c0,.56-.22,1.01-.67,1.33-.44.33-1.01.49-1.71.49s-1.36-.13-2.04-.38c-.67-.25-1.31-.61-1.93-1.09l-.87,1.22c.65.52,1.4.93,2.24,1.24.84.3,1.68.44,2.51.44.58,0,1.11-.07,1.6-.22.5-.16.93-.39,1.29-.69.37-.3.66-.65.87-1.07.22-.43.33-.92.33-1.47Z"></path>
  <path d="m125.73,16.51c-.34-1.7-1.17-3.27-2.4-4.49-1.23-1.23-2.79-2.06-4.48-2.4-1.7-.34-3.46-.17-5.06.5-1.6.66-2.97,1.79-3.93,3.23-.96,1.44-1.48,3.14-1.48,4.87,0,2.33.92,4.56,2.57,6.2,1.64,1.65,3.87,2.57,6.19,2.57,1.73,0,3.43-.51,4.87-1.48,1.44-.96,2.56-2.33,3.23-3.94.66-1.6.84-3.37.5-5.07Zm-5.03,3.19c-.29.7-.78,1.31-1.42,1.73-.63.42-1.38.65-2.14.65-1.02,0-2-.41-2.72-1.13-.72-.72-1.13-1.7-1.13-2.73,0-.76.23-1.51.65-2.14.42-.63,1.02-1.13,1.73-1.42.7-.29,1.48-.37,2.22-.22.75.15,1.43.52,1.97,1.06.54.54.9,1.23,1.05,1.97.15.75.07,1.52-.22,2.23Z" fill="url(#b)"></path>
  <path d="m108.41,18.16c-.01,1.74.49,3.44,1.44,4.89.96,1.45,2.32,2.59,3.92,3.26,1.6.67,3.36.85,5.07.52,1.7-.33,3.27-1.17,4.5-2.39,1.23-1.23,2.07-2.79,2.41-4.5.34-1.71.17-3.47-.5-5.08-.67-1.61-1.79-2.98-3.24-3.94-1.45-.96-3.14-1.47-4.88-1.47-1.15,0-2.29.23-3.35.67-1.06.44-2.03,1.09-2.84,1.91-.81.82-1.46,1.78-1.9,2.85-.44,1.07-.66,2.21-.66,3.36m12.33,1.46c-.29.7-.78,1.31-1.42,1.73-.63.42-1.38.65-2.14.65-1.02,0-2-.41-2.72-1.13-.72-.72-1.13-1.7-1.13-2.73,0-.76.23-1.51.65-2.14.42-.63,1.02-1.13,1.73-1.42.7-.29,1.48-.37,2.22-.22.75.15,1.43.52,1.97,1.06.54.54.9,1.23,1.05,1.97.15.75.07,1.52-.22,2.23Z" fill="url(#c)"></path>
  <line x1="99.6" y1=".42" x2="99.6" y2="39.9" fill="none" stroke="#929497" stroke-miterlimit="10"></line>
  <path d="m22.25,17.16h3.42c-.71,7.26-5.3,11.65-12.15,11.65C5.34,28.8,0,22.67,0,14.44S6.01,0,13.11,0c3.38,0,6.05,1.25,7.72,3.26l.79-3.13h3.17v10.55h-3.17c-1.79-5.05-4.42-7.62-8.02-7.62-4.34,0-7.56,3.09-7.56,11.06,0,7.47,3.01,11.36,8.27,11.36,4.59,0,7.22-3.63,7.93-8.31Zm27.35-8.64c-2.38,0-4.8,1.63-5.84,5.01v-4.72h-7.6v3.09h2.92v13.15h-4.81v-14.38h-8.22v3.09h3.34v11.29h-3.34v3.09h21.55v-3.09h-3.63v-8.98c.71-2.42,2.05-4.17,3.59-4.17-.04.17-.08.38-.08.54,0,1.71,1.25,2.67,2.88,2.67s2.84-1.38,2.84-3.09c0-1.88-1.34-3.51-3.59-3.51Zm41.2,15.95c-.92,2.76-2.38,3.88-4.68,3.88-2,0-3.76-1.09-3.88-3.67h-.21c-1.17,2.46-3.67,3.76-6.3,3.76-3.22,0-5.36-1.74-5.69-4.35-1.4,2.8-4.02,4.47-7.62,4.47-6.18,0-9.77-4.09-9.77-9.77,0-6.05,4.3-10.31,10.27-10.31,4.8,0,7.32,3.09,7.32,5.76,0,2.05-1.04,3.51-2.96,3.51-1.8,0-2.84-1.25-2.84-2.76,0-1.21.92-2.21,1.71-2.55-.09-.61-1.41-1.54-3.11-1.54-2.84,0-5.13,2.63-5.13,7.43,0,4.47,1.88,7.18,5.51,7.18,2.3,0,4.05-1.34,4.93-3.88h1.94c.23-.62.59-1.2,1.1-1.71,1.42-1.42,3.42-2.63,7.56-2.63,2.81,0,2.71-2.88,2.71-2.88,0-2.46-1.6-3.42-3.67-3.42-1.31,0-1.99.71-1.99.71.67.38,1.13,1.17,1.13,2.09,0,1.34-1.04,2.42-2.67,2.42-1.84,0-2.8-1.29-2.8-2.67,0-3.26,2.99-5.05,7.5-5.05,5.01,0,7.35,2.21,7.35,6.26v9.35c0,.92.33,1.29,1.17,1.29.54,0,1.04-.54,1.42-1.71l1.71.79Zm-8.45-5.53c-5.47.06-7.25,1.41-7.25,3.57,0,1.67.88,2.88,2.88,2.88,2.77,0,4.37-3.23,4.37-4.77v-1.68Z"></path>
  <polygon points="64.95 39.9 62.56 34.26 62.07 35.42 63.97 39.9 64.95 39.9" fill="#131c47"></polygon>
  <path d="m66.72,35.21h-1.72v-.91h4.41v.91h-1.72v4.69h-.96v-4.69Z" fill="#131c47"></path>
  <path d="m70.72,34.3h4.03v.88h-3.07v1.46h2.72v.88h-2.72v1.5h3.11v.88h-4.07v-5.6Z" fill="#131c47"></path>
  <path d="m75.91,37.12v-.02c0-1.59,1.16-2.9,2.8-2.9,1,0,1.61.36,2.13.87l-.61.73c-.43-.42-.9-.7-1.52-.7-1.03,0-1.79.88-1.79,1.98v.02c0,1.1.75,1.99,1.79,1.99.67,0,1.09-.27,1.56-.72l.61.64c-.57.61-1.19.99-2.2.99-1.58,0-2.76-1.27-2.76-2.88Z" fill="#131c47"></path>
  <path d="m82.27,34.3h.95v2.33h2.59v-2.33h.95v5.6h-.95v-2.36h-2.59v2.36h-.95v-5.6Z" fill="#131c47"></path>
  <polygon points="62.56 34.26 61.58 34.26 61.58 34.26 59.19 39.9 60.17 39.9 62.56 34.26 62.56 34.26" fill="#131c47"></polygon>
  <path d="m39.15,34.3h1.02l1.65,2.65,1.65-2.65h1.02v5.6h-.95v-4.02l-1.71,2.64h-.03l-1.7-2.63v4h-.94v-5.6Z" fill="#131c47"></path>
  <path d="m46.25,34.3h.95v5.6h-.95v-5.6Z" fill="#131c47"></path>
  <path d="m50.23,35.21h-1.72v-.91h4.41v.91h-1.72v4.69h-.96v-4.69Z" fill="#131c47"></path>
  <path d="m57.38,37.78c.75-.22,1.29-.78,1.29-1.7v-.02c0-.49-.16-.9-.45-1.21-.35-.35-.88-.56-1.57-.56h-2.42v5.6h.95v-1.95h1.2l1.33,1.94.43-1.02-.76-1.1Zm-2.2-.7v-1.88h1.39c.71,0,1.13.33,1.13.93v.02c0,.57-.43.94-1.12.94h-1.4Z" fill="#131c47"></path>
  <path d="m35.43,3.82c-.16-.82-.57-1.58-1.16-2.17-.59-.59-1.34-1-2.16-1.16-.82-.16-1.67-.08-2.44.24-.77.32-1.43.86-1.9,1.56-.46.7-.71,1.52-.71,2.35,0,1.12.45,2.2,1.24,2.99.79.79,1.87,1.24,2.99,1.24.84,0,1.65-.25,2.35-.71.69-.47,1.24-1.13,1.56-1.9.32-.77.4-1.63.24-2.45Zm-2.43,1.54c-.14.34-.38.63-.68.84-.31.2-.66.31-1.03.31-.49,0-.96-.2-1.31-.55-.35-.35-.54-.82-.54-1.32,0-.37.11-.73.31-1.03.2-.31.49-.54.83-.69.34-.14.71-.18,1.07-.11.36.07.69.25.95.51.26.26.44.59.51.95.07.36.03.74-.11,1.08Z" fill="url(#d)"></path>
  <path d="m27.07,4.61c0,.84.24,1.66.7,2.36.46.7,1.12,1.25,1.89,1.57.77.32,1.62.41,2.45.25.82-.16,1.58-.56,2.17-1.16.59-.59,1-1.35,1.16-2.17.16-.82.08-1.68-.24-2.45-.32-.77-.87-1.44-1.56-1.9-.7-.46-1.52-.71-2.35-.71-.56,0-1.11.11-1.62.32-.51.21-.98.53-1.37.92-.39.39-.7.86-.92,1.38-.21.51-.32,1.07-.32,1.62m5.95.7c-.14.34-.38.63-.68.84-.31.2-.66.31-1.03.31-.49,0-.96-.2-1.31-.55-.35-.35-.54-.82-.54-1.32,0-.37.11-.73.31-1.03.2-.31.49-.54.83-.69.34-.14.71-.18,1.07-.11.36.07.69.25.95.51.26.26.44.59.51.95.07.36.03.74-.11,1.08Z" fill="url(#e)"></path>
</svg>
